<mxfile host="65bd71144e">
    <diagram id="lOBJJIlj-e6fC8eXWOW_" name="Page-1">
        <mxGraphModel dx="3205" dy="1690" grid="1" gridSize="10" guides="1" tooltips="1" connect="1" arrows="1" fold="1" page="1" pageScale="1" pageWidth="850" pageHeight="1100" math="0" shadow="0">
            <root>
                <mxCell id="0"/>
                <mxCell id="1" parent="0"/>
                <mxCell id="2" value="" style="whiteSpace=wrap;html=1;aspect=fixed;" vertex="1" parent="1">
                    <mxGeometry x="50" y="20" width="750" height="750" as="geometry"/>
                </mxCell>
                <mxCell id="6" style="edgeStyle=none;html=1;exitX=1;exitY=0.5;exitDx=0;exitDy=0;" edge="1" parent="1" source="3" target="2">
                    <mxGeometry relative="1" as="geometry"/>
                </mxCell>
                <mxCell id="3" value="" style="rounded=0;whiteSpace=wrap;html=1;" vertex="1" parent="1">
                    <mxGeometry x="70" y="50" width="680" height="60" as="geometry"/>
                </mxCell>
                <mxCell id="4" value="" style="ellipse;whiteSpace=wrap;html=1;" vertex="1" parent="1">
                    <mxGeometry x="80" y="50" width="70" height="60" as="geometry"/>
                </mxCell>
                <mxCell id="5" value="Login /SignUp&amp;nbsp;" style="rounded=0;whiteSpace=wrap;html=1;" vertex="1" parent="1">
                    <mxGeometry x="610" y="60" width="120" height="40" as="geometry"/>
                </mxCell>
                <mxCell id="7" value="Profile Image" style="ellipse;whiteSpace=wrap;html=1;aspect=fixed;" vertex="1" parent="1">
                    <mxGeometry x="630" y="-50" width="80" height="80" as="geometry"/>
                </mxCell>
                <mxCell id="8" value="" style="rounded=1;whiteSpace=wrap;html=1;" vertex="1" parent="1">
                    <mxGeometry x="80" y="160" width="200" height="130" as="geometry"/>
                </mxCell>
                <mxCell id="9" value="&lt;h1&gt;Heading&lt;/h1&gt;&lt;p&gt;Lorem ipsum dolor sit amet, consectetur adipisicing elit, sed do eiusmod tempor incididunt ut labore et dolore magna aliqua.&lt;/p&gt;" style="text;html=1;strokeColor=none;fillColor=none;spacing=5;spacingTop=-20;whiteSpace=wrap;overflow=hidden;rounded=0;" vertex="1" parent="1">
                    <mxGeometry x="85" y="170" width="190" height="120" as="geometry"/>
                </mxCell>
                <mxCell id="10" value="&lt;h1&gt;Heading&lt;/h1&gt;&lt;p&gt;Lorem ipsum dolor sit amet, consectetur adipisicing elit, sed do eiusmod tempor incididunt ut labore et dolore magna aliqua.&lt;/p&gt;" style="text;html=1;strokeColor=none;fillColor=none;spacing=5;spacingTop=-20;whiteSpace=wrap;overflow=hidden;rounded=0;" vertex="1" parent="1">
                    <mxGeometry x="-1250" y="165" width="190" height="120" as="geometry"/>
                </mxCell>
                <mxCell id="11" value="" style="rounded=1;whiteSpace=wrap;html=1;" vertex="1" parent="1">
                    <mxGeometry x="330" y="160" width="200" height="130" as="geometry"/>
                </mxCell>
                <mxCell id="12" value="" style="rounded=1;whiteSpace=wrap;html=1;" vertex="1" parent="1">
                    <mxGeometry x="590" y="160" width="160" height="140" as="geometry"/>
                </mxCell>
                <mxCell id="13" value="" style="rounded=1;whiteSpace=wrap;html=1;" vertex="1" parent="1">
                    <mxGeometry x="85" y="330" width="200" height="130" as="geometry"/>
                </mxCell>
                <mxCell id="14" value="" style="rounded=1;whiteSpace=wrap;html=1;" vertex="1" parent="1">
                    <mxGeometry x="325" y="330" width="200" height="130" as="geometry"/>
                </mxCell>
                <mxCell id="15" value="" style="rounded=1;whiteSpace=wrap;html=1;" vertex="1" parent="1">
                    <mxGeometry x="570" y="340" width="200" height="130" as="geometry"/>
                </mxCell>
                <mxCell id="16" value="" style="rounded=1;whiteSpace=wrap;html=1;" vertex="1" parent="1">
                    <mxGeometry x="85" y="485" width="200" height="130" as="geometry"/>
                </mxCell>
                <mxCell id="17" value="" style="rounded=1;whiteSpace=wrap;html=1;" vertex="1" parent="1">
                    <mxGeometry x="325" y="485" width="200" height="130" as="geometry"/>
                </mxCell>
                <mxCell id="18" value="" style="rounded=1;whiteSpace=wrap;html=1;" vertex="1" parent="1">
                    <mxGeometry x="580" y="485" width="200" height="130" as="geometry"/>
                </mxCell>
                <mxCell id="19" value="Next Page&amp;nbsp;" style="rounded=1;whiteSpace=wrap;html=1;" vertex="1" parent="1">
                    <mxGeometry x="630" y="670" width="130" height="60" as="geometry"/>
                </mxCell>
                <mxCell id="20" value="Prev Page" style="rounded=1;whiteSpace=wrap;html=1;" vertex="1" parent="1">
                    <mxGeometry x="490" y="670" width="120" height="60" as="geometry"/>
                </mxCell>
                <mxCell id="21" value="cart with Number" style="rounded=1;whiteSpace=wrap;html=1;" vertex="1" parent="1">
                    <mxGeometry x="431" y="60" width="120" height="40" as="geometry"/>
                </mxCell>
                <mxCell id="22" value="Add to cart&amp;nbsp;" style="rounded=1;whiteSpace=wrap;html=1;arcSize=50;" vertex="1" parent="1">
                    <mxGeometry x="370" y="240" width="120" height="30" as="geometry"/>
                </mxCell>
                <mxCell id="23" value="added" style="rounded=1;whiteSpace=wrap;html=1;" vertex="1" parent="1">
                    <mxGeometry x="620" y="235" width="120" height="40" as="geometry"/>
                </mxCell>
                <mxCell id="24" value="Footer" style="rounded=0;whiteSpace=wrap;html=1;" vertex="1" parent="1">
                    <mxGeometry x="50" y="780" width="740" height="60" as="geometry"/>
                </mxCell>
                <mxCell id="25" value="Search bar&amp;nbsp;" style="rounded=0;whiteSpace=wrap;html=1;" vertex="1" parent="1">
                    <mxGeometry x="280" y="60" width="130" height="50" as="geometry"/>
                </mxCell>
            </root>
        </mxGraphModel>
    </diagram>
</mxfile>